<svg width="100" height="100" viewBox="0 0 32 32" fill="none" xmlns="http://www.w3.org/2000/svg">
  <path 
    fill-rule="evenodd" 
    clip-rule="evenodd" 
    d="M 15.9324 22.3499 H 17.5121 C 17.5121 22.3499 17.9893 22.3033 18.2334 22.0698 C 18.4576 21.8553 18.4503 21.4528 18.4503 21.4528 C 18.4503 21.4528 18.4196 19.5684 19.4032 19.2906 C 20.3732 19.0172 21.6188 21.112 22.9386 21.9178 C 23.937 22.5273 24.6956 22.3939 24.6956 22.3939 L 28.2255 22.3499 C 28.2255 22.3499 30.072 22.2487 29.1963 20.9582 C 29.1247 20.8525 28.6864 20.0034 26.5717 18.2582 C 24.3582 16.432 24.655 16.7273 27.3209 13.5679 C 28.9447 11.6439 29.5938 10.4694 29.3909 9.96657 C 29.1978 9.48728 28.0033 9.61375 28.0033 9.61375 L 24.029 9.63565 C 24.029 9.63565 23.7343 9.60002 23.5158 9.71612 C 23.3021 9.83002 23.1651 10.0954 23.1651 10.0954 C 23.1651 10.0954 22.5358 11.5841 21.6973 12.8502 C 19.9274 15.5219 19.2197 15.6634 18.9305 15.4972 C 18.2573 15.1104 18.4257 13.9441 18.4257 13.1154 C 18.4257 10.5257 18.8674 9.44639 17.5653 9.16702 C 17.1335 9.07429 16.8153 9.0131 15.7101 9.00288 C 14.2922 8.99032 13.092 9.00682 12.4124 9.30298 C 11.9602 9.49984 11.6113 9.93838 11.8239 9.96379 C 12.0867 9.99461 12.6813 10.1062 12.9969 10.4878 C 13.4043 10.9803 13.39 12.0869 13.39 12.0869 C 13.39 12.0869 13.624 15.1346 12.8435 15.5133 C 12.3078 15.7728 11.5729 15.2427 9.99502 12.8186 C 9.18685 11.577 8.57629 10.2048 8.57629 10.2048 C 8.57629 10.2048 8.45868 9.94817 8.24876 9.81104 C 7.99415 9.64456 7.6382 9.59184 7.6382 9.59184 L 3.86135 9.61375 C 3.86135 9.61375 3.29448 9.62777 3.08637 9.84726 C 2.90108 10.0422 3.07158 10.4451 3.07158 10.4451 C 3.07158 10.4451 6.02811 16.5954 9.37625 19.6946 C 12.4466 22.5364 15.9324 22.3499 15.9324 22.3499 Z" 
    fill="rgb(147, 135, 167)"
  />
</svg>
